<svg width="370" height="64" viewBox="0 0 370 64" fill="none" xmlns="http://www.w3.org/2000/svg">
<g clip-path="url(#clip0_1_1046)">
<path d="M38.0077 6.04905C38.0077 6.04905 68.7422 6.12697 69.4465 6.03857C69.3 6.23108 68.5497 6.77784 68.3795 6.87148C65.1752 8.63616 61.9912 10.4349 58.913 12.4124C56.4505 13.9937 54.0077 15.6071 51.942 17.7084C51.3855 18.2741 50.8855 18.887 50.5852 19.6322C50.2022 20.5816 50.4013 21.3072 51.2087 21.9351C51.7298 22.3404 52.3277 22.6024 52.9433 22.825C54.0418 23.2225 55.1765 23.4981 56.304 23.7993C57.641 24.1568 58.9932 24.4718 60.2376 25.1043C62.009 26.0047 62.3217 27.2089 61.212 28.8635C60.5228 29.8909 59.6161 30.7186 58.6765 31.5057C56.551 33.2867 52.8283 36.4527 52.737 36.7316C52.9584 36.8292 52.4972 37.2626 52.4906 37.59C52.4853 37.8821 52.7889 38.2959 52.5622 38.4203C52.1253 38.66 51.099 38.5251 50.6181 38.6423C48.3973 39.1832 46.1312 39.3835 43.8559 39.4503C41.2653 39.5263 38.6733 39.5034 36.0912 39.2192C32.9158 38.8695 29.7804 38.3273 26.8133 37.0937C23.649 35.7782 20.9841 33.9539 20.197 30.3211C20.197 29.3743 20.197 27.8787 20.197 26.9319C20.197 26.9319 22.8902 23.1517 25.1898 20.1606C27.2456 17.4864 33.0932 9.91629 34.4138 7.84778C35.7344 5.77993 36.6865 6.05232 38.0077 6.04905Z" fill="url(#paint0_linear_1_1046)"/>
<path d="M29.9698 11.4361C29.9494 11.482 29.9383 11.5579 29.9067 11.5678C29.7852 11.6044 29.7944 11.4918 29.774 11.4244C29.6433 10.9896 29.4954 10.5587 29.3903 10.1174C28.9718 8.36383 27.9291 6.96845 26.8627 5.56718C24.5217 2.49225 21.3174 0.940377 17.6085 0.275101C15.4626 -0.10992 13.3148 -0.133493 11.1946 0.482672C10.8201 0.591369 10.46 0.736079 10.1118 0.908946C9.99812 0.965914 9.85095 0.998654 9.83584 1.16628C10.1565 1.30575 10.4199 1.53297 10.6979 1.7353C11.7222 2.48243 12.7386 3.24003 13.7603 3.99108C14.9212 4.84428 16.0861 5.69225 17.2458 6.54742C18.073 7.15703 18.891 7.77975 19.7208 8.38609C21.0027 9.32245 22.2944 10.2457 23.5749 11.1827C24.6091 11.939 25.6321 12.7104 26.6636 13.4699C26.8621 13.616 26.9258 13.7089 26.6978 13.9165C25.7359 14.7933 24.9514 15.8174 24.2872 16.9332C24.1439 17.1741 24.0046 17.1885 23.7865 16.9947C22.8877 16.1965 21.9751 15.4127 21.073 14.6185C20.0723 13.7384 18.9429 13.1406 17.7011 12.6803C16.3963 12.1964 15.0934 11.7321 13.707 11.5481C12.7162 11.5108 11.7248 11.4505 10.7353 11.5756C7.36738 11.9993 4.34243 13.2218 1.74782 15.4311C1.11314 15.9713 0.557947 16.5887 0.127593 17.3077C0.0494071 17.438 -0.0918539 17.5696 0.0868577 17.7274C0.144019 17.6351 0.23666 17.6168 0.331929 17.6227C1.47319 17.6967 2.61444 17.7628 3.75504 17.8505C4.89564 17.9383 6.03362 18.0568 7.17422 18.1452C8.52638 18.2493 9.88051 18.3331 11.2333 18.4307C12.0691 18.4909 12.9035 18.5682 13.7392 18.6252C14.7478 18.6946 15.7576 18.7411 16.7655 18.8151C17.5881 18.8753 18.4081 18.9689 19.23 19.0338C20.3962 19.1261 21.5631 19.2178 22.7313 19.2819C23.0703 19.3003 23.0664 19.4247 22.9843 19.6827C22.7471 20.4298 22.5092 21.1763 22.4159 21.9607C22.3384 22.6181 22.2346 23.2729 22.1426 23.9284C22.2905 24.079 22.186 24.2571 22.1866 24.4188C22.2241 31.3184 27.119 37.2607 33.889 38.5985C35.7727 38.9704 37.6636 38.9802 39.659 38.5743C38.9901 38.4859 38.4218 38.4322 37.8614 38.3333C32.1143 37.3236 27.481 32.9142 26.2261 27.2698C24.5171 19.5812 29.1163 12.0746 36.747 10.0146C37.3035 9.86462 37.841 9.77492 38.3995 9.74152C38.6183 9.72843 38.6951 9.60467 38.7773 9.44424C39.4133 8.20864 39.705 6.88529 39.7431 5.50825C39.7825 4.10436 39.5913 2.73387 38.9882 1.44785C38.8331 1.11652 38.6912 0.763581 38.362 0.546843C37.6649 1.97758 36.9612 3.40504 36.2727 4.84036C35.4671 6.5186 34.6689 8.20078 33.8837 9.8882C33.7668 10.1403 33.5874 10.2752 33.3476 10.3125C32.5743 10.4336 31.8752 10.7709 31.1446 11.0158C30.7497 11.1487 30.41 11.4348 29.9698 11.4361Z" fill="#A5C33B"/>
<path d="M22.1425 23.929C22.2345 23.2735 22.3376 22.6187 22.4158 21.9613C22.5085 21.1768 22.7463 20.4297 22.9842 19.6832C23.0656 19.4259 23.0696 19.3015 22.7312 19.2825C21.563 19.2183 20.3968 19.1267 19.2299 19.0343C18.408 18.9695 17.588 18.8759 16.7654 18.8156C15.7575 18.7416 14.7477 18.6951 13.7391 18.6257C12.9034 18.5688 12.0683 18.4915 11.2332 18.4313C9.88039 18.3337 8.52691 18.2499 7.17409 18.1458C6.03349 18.0574 4.89552 17.9389 3.75492 17.8511C2.61497 17.7634 1.47306 17.6966 0.331802 17.6232C0.236533 17.6174 0.143235 17.635 0.086731 17.728C0.790408 18.8366 1.72536 19.7356 2.72864 20.562C5.78185 23.0751 9.18525 24.8987 13.0873 25.7296C15.1011 26.1585 17.0781 25.9647 19.0551 25.4703C20.2095 25.1816 21.2667 24.7488 22.1425 23.929Z" fill="#7FAF42"/>
<path d="M13.7076 11.5487C15.0946 11.7327 16.3968 12.1969 17.7016 12.6808C18.9434 13.1411 20.0729 13.7383 21.0735 14.619C21.9756 15.4126 22.8882 16.1971 23.787 16.9953C24.0052 17.1891 24.1438 17.174 24.2877 16.9337C24.9526 15.818 25.7364 14.7938 26.6983 13.9171C26.9263 13.7095 26.8626 13.6165 26.6642 13.4705C25.6326 12.7109 24.609 11.9396 23.5755 11.1833C22.2943 10.2463 21.0026 9.32301 19.7214 8.38665C18.8915 7.7803 18.0735 7.15759 17.2463 6.54797C16.0867 5.69346 14.9218 4.8455 13.7608 3.99164C12.7391 3.24059 11.7227 2.48298 10.6984 1.73586C10.4205 1.53287 10.157 1.30631 9.83636 1.16684C9.84951 2.77895 10.2838 4.30398 10.8114 5.8074C11.5269 7.84447 12.5289 9.74077 13.7076 11.5487Z" fill="#7FAF42"/>
<path d="M29.9697 11.4361C30.4099 11.4348 30.7496 11.1486 31.1451 11.0163C31.8764 10.7721 32.5755 10.4349 33.3481 10.3131C33.5879 10.2758 33.7673 10.1402 33.8843 9.88878C34.6694 8.20071 35.4677 6.51919 36.2732 4.84094C36.9618 3.40627 37.6655 1.97881 38.3626 0.547424C37.7574 0.571652 37.2246 0.831607 36.7003 1.0896C34.2864 2.27937 32.2798 3.93928 30.8284 6.22387C30.0203 7.49483 29.766 8.91575 29.7286 10.389C29.7194 10.7525 29.8311 11.1008 29.9697 11.4361Z" fill="#7FAF42"/>
<path d="M40.5156 5.17094C42.4427 5.19124 44.3697 5.21481 46.2968 5.22791C46.649 5.23053 47.0346 5.31238 47.2429 4.87104C47.4479 4.4356 47.5136 3.83777 48.1627 3.80569C49.3526 3.7461 50.5445 3.67997 51.7317 3.85414C51.7738 3.86004 51.8355 3.88688 51.8474 3.91897C52.7344 6.26838 54.7527 4.83896 56.2291 5.21154C56.4827 5.27571 60.5129 5.20565 62.2448 5.22464C63.1384 5.23446 64.0812 5.40471 64.3769 4.15339C64.4669 3.77164 64.9452 3.74086 65.3164 3.7389C66.2284 3.73431 67.1403 3.73562 68.0516 3.75396C68.3723 3.76051 68.8105 3.80372 68.8631 4.13636C69.0989 5.62079 70.2238 5.18731 71.1147 5.21416C71.9334 5.23904 77.2178 5.2135 79.0404 5.22595C79.9182 5.23184 80.907 5.48787 81.1955 4.19988C81.271 3.86331 81.6534 3.77622 81.9839 3.77295C82.9865 3.76247 83.9885 3.76378 84.9911 3.77033C85.3939 3.77295 85.8058 3.97135 85.8216 4.34197C85.8676 5.40209 86.5963 5.21743 87.2395 5.21416C88.1955 5.20892 94.5936 5.1919 96.8367 5.21481C97.292 5.2194 97.6212 5.12773 97.7723 4.63139C98.1816 3.28381 99.3084 3.70747 100.192 3.78015C101.125 3.85676 101.06 4.68574 101.069 5.37393C101.09 7.10849 101.094 8.84305 101.128 10.577C101.135 10.9345 100.94 11.4747 101.647 11.4374C102.283 11.404 102.169 10.9247 102.179 10.5318C102.193 9.93853 102.189 9.34528 102.195 8.75138C102.201 8.25701 102.096 7.69126 102.898 7.72269C103.006 7.72662 103.155 7.63102 103.223 7.53738C103.531 7.11635 103.2 3.7592 102.816 3.2622C102.532 3.17577 102.248 3.08934 101.964 3.0029C101.949 2.63949 101.934 2.27608 101.919 1.91267C101.939 1.27686 102.246 1.08435 102.877 1.18715C104.132 1.39079 104.805 2.20732 105.268 3.28381C105.256 4.46572 105.295 5.65156 105.215 6.82889C105.156 7.69846 105.574 7.83597 106.272 7.73841C106.31 8.08414 106.348 8.43053 106.386 8.77626C106.389 9.50898 106.393 10.2424 106.396 10.9751C106.383 11.8145 107.032 11.457 107.385 11.459C112.092 11.4812 116.798 11.4714 121.505 11.4701C122.021 11.7229 131.065 28.9107 131.996 30.7395C131.883 32.569 131.89 42.3838 132.019 42.4866C132.95 43.2311 132.708 44.2467 132.739 45.2047C132.76 45.8739 132.709 48.8368 132.755 49.6435C132.828 50.906 132.367 51.4357 131.028 51.3925C128.863 51.422 128.691 51.6512 128.705 53.6581C128.708 54.0877 128.691 54.362 128.312 54.3509L120.032 54.3738C118.773 54.3168 118.129 53.9947 118.168 52.7054C118.184 51.198 118.212 49.69 118.214 48.1827C118.218 44.4556 116.076 41.4356 112.666 40.2688C111.442 39.9925 109.227 39.6886 107.639 39.9597C104.693 40.1732 102.944 40.9256 101.249 43.622C99.8275 45.8824 98.4221 47.9168 98.9004 50.7266C99.0883 51.8286 98.5108 52.2693 97.3866 52.2647C88.8098 52.23 80.2329 52.23 71.6561 52.2195C71.1088 51.8777 71.0851 51.346 71.0871 50.777C71.0917 49.5899 71.0595 48.4027 71.0424 47.2149C69.8473 45.0573 68.206 43.2088 66.848 41.1659C66.3769 40.4567 65.8493 40.257 65.0418 40.2695L37.4913 40.314C36.8369 40.3867 35.7239 41.086 35.402 41.5326C34.2285 43.163 33.1667 44.8897 31.856 46.4016C30.2344 48.2724 29.7285 50.3402 30.0912 52.706C29.8987 53.4892 30.3882 54.4616 29.4407 55.0358C27.6227 55.0823 19.0919 55.2159 18.4953 54.5807C18.4703 53.9541 18.4171 51.0599 18.4165 50.7901C18.6747 49.9166 18.2318 49.5309 17.4881 49.1256C16.0249 48.3287 14.5058 48.4675 12.9644 48.571C11.1077 48.4498 9.24633 48.3575 7.45855 47.7662C7.3554 47.5829 7.25159 47.3989 7.14844 47.2156C7.16618 45.8627 7.18326 44.5099 7.201 43.1571C7.2851 43.0471 7.36854 42.9378 7.45264 42.8277L7.46447 42.8173C8.5663 42.3805 9.60901 42.9279 10.6806 43.0013C11.379 43.0491 12.13 43.3883 12.7266 42.6889C14.5617 40.5379 16.6773 38.0929 18.517 35.9458L18.5124 28.3449C18.5124 28.3449 33.2206 9.0061 35.2206 6.29916C35.7935 5.40536 36.8717 5.10481 37.9315 5.20565C38.785 5.28291 39.6536 5.18797 40.5156 5.17094ZM86.6061 7.13272C85.2999 6.99259 84.6764 7.50661 84.5936 8.77103C83.7559 10.7446 75.3676 34.3966 74.7165 36.2254C74.6062 36.4716 74.5083 36.7244 74.3834 36.9634C73.869 37.9528 74.1245 38.324 75.2691 38.2363L84.8532 38.2271C85.4261 38.2383 85.775 38.0877 85.9727 37.4872C86.6843 35.3277 96.0115 9.65828 96.8163 7.20147C95.9563 7.20147 87.7645 7.25713 86.6061 7.13272ZM62.8454 7.97021C63.0825 7.63364 63.415 7.25255 62.6594 7.17332C62.2672 7.13206 61.8651 7.18707 61.4676 7.1982C60.7258 7.19754 53.8526 7.16677 52.2527 7.15891C51.8598 7.15695 51.3822 7.07641 51.3257 7.6893C51.1654 8.03372 40.4887 37.533 40.3441 38.3666C44.0156 38.3666 47.6273 38.3692 51.239 38.362C51.4998 38.3614 51.7987 38.4196 51.986 38.1414C53.0813 35.7494 62.733 8.32576 62.8454 7.97021ZM102.508 38.4124C102.508 38.4124 110.302 38.4196 112.138 38.4596C114.147 38.7097 116.145 39.4654 117.855 41.7427C118.93 43.1407 119.624 44.8576 120.208 46.5005C120.174 46.5725 126.413 46.5673 126.413 46.5673C128.523 46.6341 128.529 46.5738 128.702 48.6659C128.732 49.0339 128.674 49.3718 129.222 49.415C129.827 49.4628 130.658 49.4425 130.738 48.867C130.944 47.3904 131.26 45.9747 130.611 44.6972C130.163 43.8178 130.019 43.0589 130.012 42.1939C129.988 38.8158 129.998 35.437 130.005 32.0589C130.007 31.4618 129.964 30.9078 129.664 30.3499C126.756 24.94 123.865 19.5195 120.996 14.0893C120.724 13.5727 120.414 13.3625 119.834 13.3729C117.271 13.4194 114.707 13.4325 112.143 13.4574C110.308 13.4574 108.471 13.4574 106.636 13.4574C105.63 13.4365 104.616 13.4915 103.621 13.3762C102.37 13.2315 101.999 13.6656 102.008 14.9255C102.063 22.3129 102.033 29.701 102.044 37.0891C102.045 37.4289 101.996 38.3083 102.347 38.5951L102.508 38.4124ZM97.1172 38.2167C99.087 38.2095 98.7657 38.2186 98.9346 36.2293C98.9346 36.2293 98.9326 11.806 98.9326 7.83335C98.8433 7.81436 98.7539 7.79538 98.6645 7.77639C96.6186 13.5917 89.1895 34.2361 88.5082 36.1468C87.8269 37.9089 87.792 38.218 89.9957 38.2298L97.1172 38.2167ZM68.9275 40.7337C70.1495 42.4159 71.2547 43.9619 72.3893 45.4869C72.779 46.0107 73.1062 46.5346 73.0766 47.2129C73.0621 48.0616 73.0483 48.9102 73.0332 49.7581C73.0267 50.1314 73.1318 50.3769 73.5786 50.2414L95.6172 50.2394C96.6409 50.5059 97.133 50.1995 96.9839 49.066C96.903 48.4538 96.9438 47.8258 96.9293 47.2044C96.9405 46.5928 97.1718 46.0873 97.5423 45.5897C98.409 44.4248 100.87 41.0421 101.022 40.7389C100.974 40.8293 68.819 40.7344 68.9275 40.7337ZM126.605 52.3204C126.668 48.7118 126.837 48.5369 126.114 48.5369C125.387 48.5193 121.708 48.5461 120.982 48.5225C120.526 48.5081 120.319 48.7098 120.325 49.1708C120.338 50.0332 120.325 50.8962 120.332 51.7592C120.334 52.0486 120.419 52.3466 120.765 52.3308L126.605 52.3204ZM27.8468 49.4517C26.5616 49.453 25.2765 49.4537 23.9913 49.455C23.7174 49.4399 23.4434 49.4144 23.1694 49.4117C20.2469 49.3875 20.2798 49.3875 20.3816 52.3105C20.4086 53.0767 20.6885 53.2128 21.3626 53.1978C23.241 53.1552 25.1234 53.1094 26.9992 53.1873C28.0919 53.2331 28.2456 52.7499 28.0636 51.8803C28.0662 51.1463 28.0689 50.4123 28.0715 49.6782C28.1096 49.4923 28.0321 49.419 27.8468 49.4517ZM20.4638 47.2116C20.4303 47.3884 20.4854 47.4729 20.6773 47.4172C21.7798 47.4205 22.8823 47.4238 23.9848 47.4271C25.0249 47.4441 26.0722 47.3884 27.1024 47.4965C28.448 47.6379 29.3547 47.19 29.7988 45.8948C30.7213 44.614 31.6438 43.3333 32.5656 42.0525C35.6569 38.9127 45.2449 10.6555 45.7482 8.77233C46.5221 7.16808 46.5221 7.1648 44.7521 7.15695C42.647 7.14778 40.5412 7.18772 38.4381 7.11962C37.6056 7.09278 37.1293 7.39464 36.6391 8.037C31.5511 14.7127 26.4414 21.3726 21.2982 28.0064C20.6425 28.8517 20.2161 29.6676 20.4526 30.7389C20.4519 32.5677 20.4598 45.3815 20.4638 47.2116ZM57.3204 37.8722C56.9288 38.6311 57.6121 38.3548 57.8434 38.3535C61.279 38.3326 64.7146 38.2704 68.1502 38.2566C68.7855 38.254 69.0148 37.9672 69.1975 37.4237C69.9807 35.0965 79.2323 9.655 79.8781 7.40119C79.116 6.90485 68.8 7.20409 68.6088 7.20737C68.4439 7.15367 68.3493 7.2126 68.3263 7.38416C67.3013 9.60458 57.3769 37.277 57.3204 37.8722ZM37.7876 38.3561C38.3842 38.2834 38.4026 37.7851 38.5301 37.4322C42.055 27.6521 45.5675 17.8675 49.0648 8.07694C49.1614 7.80585 49.6489 7.39529 49.0517 7.17986C48.5333 6.99325 48.3441 7.42541 48.2179 7.84972C48.1535 8.06777 48.0524 8.27403 47.9755 8.48881C45.3756 15.7433 42.7791 22.9991 40.1766 30.2523C39.3139 32.6561 38.423 35.0507 37.582 37.4617C37.4874 37.7315 37.036 38.2658 37.7876 38.3561ZM54.6286 38.3574C55.2317 38.2055 55.2396 37.6804 55.3848 37.2796C57.032 32.7439 58.6693 28.2041 60.3 23.6625C62.1772 18.4345 64.0464 13.2034 65.9104 7.97086C66.0004 7.71745 66.3775 7.3822 65.8644 7.18707C65.4997 7.04825 65.2586 7.2866 65.1259 7.61727C65.0241 7.87068 64.9393 8.13129 64.8467 8.38862C62.6128 14.6007 60.3769 20.8121 58.1456 27.0255C56.8999 30.4953 55.6555 33.9657 54.4295 37.4427C54.3224 37.7459 53.9196 38.218 54.6286 38.3574ZM71.5076 38.2599C72.0884 38.0981 72.0983 37.592 72.2461 37.1814C73.5713 33.4975 74.8939 29.813 76.2192 26.1291C78.3755 20.1331 80.5365 14.1384 82.6804 8.13718C82.7861 7.84187 83.2145 7.43196 82.7257 7.19296C82.2362 6.95396 82.0056 7.38678 81.8604 7.80258C81.7855 8.01735 81.6981 8.22754 81.6212 8.44232C79.1482 15.3432 76.6758 22.2448 74.2041 29.1464C73.2218 31.8893 72.2395 34.6323 71.2606 37.3759C71.1357 37.7243 70.7921 38.1564 71.5076 38.2599ZM18.4335 44.2473C15.743 45.4993 13.0413 44.9663 10.3666 44.8825C9.93424 44.8688 9.25421 44.248 9.10901 45.2774C8.98483 46.1594 9.47563 46.2654 10.2095 46.4174C12.9191 46.9798 15.8035 45.8208 18.4335 47.4454C18.4335 46.3126 18.4335 45.3553 18.4335 44.2473ZM15.0939 42.9653C17.9427 43.1879 18.8869 42.0623 18.2581 39.2846C17.1977 40.5176 16.1786 41.7028 15.0939 42.9653Z" fill="#2B4D73"/>
<path d="M68.3335 46.9386C68.7146 47.9535 68.7205 49.9755 68.2343 51.5025C67.3204 54.3745 65.279 56.0671 62.5556 57.0919C60.285 57.3787 58.0911 57.2877 56.0971 55.9558C53.1779 54.0065 51.8119 50.5989 52.6529 47.262C53.4716 44.0149 56.3014 41.5692 59.6614 41.2045C63.0333 40.8385 66.3119 42.7073 67.8053 45.8457C67.9794 46.2117 68.1575 46.5745 68.3335 46.9386ZM60.5504 43.1015C57.1102 43.0779 54.3362 45.8208 54.3303 49.2526C54.3244 52.5299 57.1739 55.3468 60.49 55.3429C63.8375 55.339 66.62 52.581 66.6437 49.2448C66.6667 45.9171 63.8973 43.1244 60.5504 43.1015Z" fill="#2B4D73"/>
<path d="M117 51.5556C116.921 51.8116 116.843 52.067 116.764 52.323C114.255 56.57 110.904 58.0787 106.721 56.8431C103.216 55.8078 100.674 51.9177 101.184 48.368C101.791 44.1426 105.084 41.1809 109.19 41.1672C113.115 41.1541 116.507 44.0103 117.15 47.7564C117.374 49.0582 117.212 50.2964 117 51.5556ZM109.256 43.0956C105.826 43.1047 103.042 45.8981 103.075 49.2965C103.107 52.5862 105.961 55.3809 109.277 55.3698C112.546 55.3586 115.45 52.4422 115.414 49.2075C115.376 45.8844 112.558 43.0871 109.256 43.0956Z" fill="#2B4D73"/>
<path d="M106.639 14.4842C107.83 14.4783 109.021 14.4717 110.212 14.4658C110.49 14.4678 110.769 14.4697 111.048 14.4717C111.413 14.4756 111.778 14.4802 112.142 14.4842C114.388 14.4986 116.634 14.5542 118.879 14.5071C119.792 14.4881 120.295 14.8266 120.705 15.6117C121.929 17.9579 123.007 20.4199 124.531 22.5624C126.894 25.8849 126.417 29.5661 126.448 33.2192C126.455 34.0901 125.915 34.3874 125.091 34.3724C123.348 34.3403 121.606 34.3442 119.864 34.3331C119.232 33.7686 118.601 33.2035 117.969 32.6391C116.526 31.2516 115.062 29.8837 113.651 28.4641C113.197 28.0077 112.697 28.0129 112.149 28.0136C109.818 28.0162 107.486 28.0149 105.155 28.0116C103.264 28.009 103.274 28.0064 103.268 26.0472C103.256 22.4943 103.231 18.9414 103.211 15.3884C103.358 15.1331 103.506 14.8777 103.653 14.623C104.647 14.5758 105.643 14.53 106.639 14.4842ZM112.168 16.461C112.168 16.4584 112.168 16.4558 112.168 16.4531C110.242 16.4531 108.314 16.5022 106.39 16.4322C105.456 16.3981 105.115 16.6162 105.148 17.6174C105.231 20.0833 105.248 22.5552 105.171 25.0212C105.141 25.9962 105.503 26.1409 106.339 26.1212C108.402 26.0721 110.469 26.152 112.53 26.0793C113.588 26.042 114.332 26.412 115.064 27.1414C116.684 28.7561 118.385 30.291 120.059 31.8527C120.595 32.353 123.65 32.7321 124.243 32.3759C124.346 32.3137 124.485 32.1801 124.479 32.0871C124.354 30.0612 125.061 27.939 124.094 26.0204C122.616 23.0876 120.963 20.2425 119.423 17.3404C119.085 16.7046 118.712 16.4165 117.948 16.4413C116.023 16.5036 114.095 16.461 112.168 16.461Z" fill="#2B4D73"/>
<path d="M21.7845 36.228C21.9218 34.3972 21.9198 32.5664 21.7864 30.7349C21.8357 29.574 22.4612 29.1988 23.588 29.2505C25.2779 29.3284 26.9756 29.3369 28.6662 29.2754C29.8298 29.2328 30.1708 29.7108 30.1616 30.8148C30.1465 32.6299 29.994 34.4516 30.2588 36.2627C30.1031 36.8514 30.1957 37.5553 29.4973 37.8925C27.6622 37.9004 25.8265 37.9076 23.9914 37.9155C22.7864 37.9626 21.7253 37.8218 21.7845 36.228ZM28.2227 33.5813C28.2214 31.2326 28.2214 31.2326 26.3094 31.2156C23.7628 31.1926 23.7628 31.1926 23.7799 33.8236C23.7937 35.9367 23.7937 35.9367 25.8364 35.9399C28.224 35.9432 28.224 35.9432 28.2227 33.5813Z" fill="#2B4D73"/>
<path d="M111.638 34.0273C111.638 34.0273 111.829 34.8209 111.042 34.8713C110.542 34.8975 109.762 35.0952 109.705 34.3946C109.624 33.7077 109.267 33.7365 108.805 33.7483L106.615 33.7457C106.615 33.7457 104.979 33.9173 104.888 32.9907C104.841 31.7636 105.921 31.8723 106.632 31.8409L109.251 31.8101C111.067 31.816 111.477 32.1925 111.638 34.0273Z" fill="#2B4D73"/>
<path d="M45.7791 49.2677C45.7587 51.2917 44.0991 52.9156 42.086 52.8809C40.0242 52.8462 38.4559 51.2125 38.4933 49.1394C38.5301 47.0637 40.1241 45.5196 42.1871 45.5622C44.2351 45.6048 45.8001 47.2188 45.7791 49.2677ZM43.8402 49.2173C43.8376 48.2573 43.0446 47.4742 42.0906 47.4912C41.1609 47.5076 40.2929 48.3739 40.3862 49.2782C40.4887 50.2676 41.0965 50.8654 42.0879 50.9453C43.0314 51.0226 43.8428 50.1726 43.8402 49.2173Z" fill="#2B4D73"/>
<path d="M60.5452 45.5596C62.5123 45.5805 64.2258 47.3223 64.1956 49.2723C64.1661 51.2196 62.3559 52.9686 60.4322 52.909C58.4446 52.8475 56.7561 51.1083 56.7916 49.159C56.8297 47.1619 58.5222 45.538 60.5452 45.5596ZM58.7278 49.2278C58.7331 50.1386 59.5885 50.9865 60.4965 50.982C61.3849 50.978 62.3047 50.094 62.2396 49.2029C62.1634 48.1539 61.5629 47.5279 60.4749 47.4945C59.5202 47.465 58.7219 48.2842 58.7278 49.2278Z" fill="#2B4D73"/>
<path d="M109.281 45.5694C111.293 45.5962 112.923 47.2568 112.919 49.2723C112.914 51.2452 111.151 52.947 109.186 52.8763C107.135 52.8029 105.517 51.1509 105.55 49.1649C105.584 47.1579 107.26 45.5425 109.281 45.5694ZM109.406 47.4965C108.348 47.4539 107.459 48.2436 107.493 49.1577C107.532 50.2113 108.149 50.8962 109.183 50.9315C110.226 50.9675 110.922 50.2997 110.959 49.2625C110.996 48.2108 110.31 47.6386 109.406 47.4965Z" fill="#2B4D73"/>
<path d="M117.854 20.0342C117.532 20.4048 117.395 20.5842 117.237 20.7427C116.074 21.905 114.867 23.026 113.758 24.2367C113.163 24.8869 112.889 24.4816 112.475 24.0946C112.025 23.6723 111.789 23.3547 112.38 22.8112C113.589 21.6994 114.725 20.5089 115.907 19.367C116.101 19.1791 116.26 18.7528 116.671 19.0861C117.057 19.3984 117.446 19.7075 117.854 20.0342Z" fill="#2B4D73"/>
<path d="M114.316 19.1024C113.975 19.5254 113.826 19.7468 113.64 19.9327C113.03 20.5469 112.394 21.1362 111.791 21.7583C111.302 22.2645 110.984 22.7313 110.201 21.939C109.377 21.1048 110.042 20.8193 110.479 20.3714C111.084 19.752 111.692 19.1352 112.322 18.5406C112.528 18.3455 112.7 17.9303 113.094 18.1824C113.512 18.4516 113.892 18.7796 114.316 19.1024Z" fill="#2B4D73"/>
<path d="M26.0282 32.205C26.7496 32.3215 27.2897 32.6705 27.3081 33.5021C27.3265 34.3226 26.8586 34.8117 26.0676 34.8314C25.2838 34.851 24.7706 34.3998 24.7483 33.5781C24.7259 32.7563 25.2286 32.3516 26.0282 32.205ZM26.6247 33.5205C26.5262 33.1786 26.3731 32.9135 25.9795 32.9671C25.6156 33.0169 25.4092 33.2703 25.4585 33.6128C25.4966 33.8799 25.7194 34.0934 26.0288 34.081C26.381 34.0659 26.5932 33.8688 26.6247 33.5205Z" fill="#2B4D73"/>
<path d="M49.967 46.9386C50.1733 48.4649 50.354 49.9755 49.8678 51.5025C48.9538 54.3745 46.9124 56.0671 44.1891 57.0919C41.9184 57.3787 39.7246 57.2877 37.7305 55.9558C34.8113 54.0065 33.4453 50.5989 34.2863 47.262C35.105 44.0149 37.9348 41.5692 41.2949 41.2045C44.6667 40.8385 47.9453 42.7073 49.4387 45.8457C49.6128 46.2117 49.7909 46.5745 49.967 46.9386ZM42.1832 43.1015C38.743 43.0779 35.969 45.8208 35.9631 49.2526C35.9572 52.5299 38.8067 55.3468 42.1227 55.3429C45.4703 55.339 48.2528 52.581 48.2764 49.2448C48.3001 45.9171 45.5301 43.1244 42.1832 43.1015Z" fill="#2B4D73"/>
<path d="M30.3613 58.1801C30.5459 57.9582 30.4874 57.6759 30.5374 57.4238C30.8166 56.0173 31.4677 54.7817 32.2568 53.5252C32.3488 53.7229 32.2568 53.8153 32.2121 53.9122C31.9185 54.5499 31.6813 55.2054 31.6123 55.908C31.4539 57.5325 32.2108 58.6837 33.5334 59.5251C34.9566 60.43 36.5577 60.8432 38.1924 61.1366C42.1891 61.8542 46.2226 61.7953 50.2568 61.6571C53.1253 61.5589 55.986 61.3297 58.8402 61.0292C61.4223 60.7568 63.9985 60.43 66.578 60.1341C67.0826 60.0764 67.5832 59.9579 68.1437 59.9972C68.0136 60.1426 67.8645 60.1504 67.7278 60.1864C63.0327 61.4312 58.2824 62.4128 53.4755 63.1173C50.9683 63.4847 48.448 63.742 45.9178 63.9011C45.7745 63.9103 45.5952 63.8199 45.4861 63.9993C45.2305 63.9993 44.9756 63.9993 44.72 63.9993C44.6733 63.8874 44.5728 63.8952 44.4789 63.8952C43.3645 63.8952 42.2496 63.8965 41.1352 63.8978C41.0406 63.8978 40.9408 63.89 40.8908 63.9987C40.6674 63.9987 40.4441 63.9987 40.2207 63.9987C40.1602 63.8579 40.0314 63.9116 39.9303 63.9037C38.7246 63.8055 37.5216 63.6837 36.337 63.4297C34.8987 63.1212 33.5052 62.6996 32.2857 61.8372C31.2614 61.113 30.6202 60.1517 30.4605 58.8939C30.4493 58.8068 30.4848 58.6968 30.36 58.6555C30.3613 58.4984 30.3613 58.3393 30.3613 58.1801Z" fill="#8E8D8D"/>
<path d="M173.453 39.1871H164.262L162.737 33.9559H153.873L152.347 39.1871H143.156L152.583 11.2377H164.026L173.453 39.1871ZM160.938 27.8368L158.268 18.9486L155.634 27.8368H160.938Z" fill="#183D61"/>
<path d="M198.881 30.9504C198.881 33.4124 198.052 35.3611 196.393 36.7971C194.552 38.3902 191.84 39.1864 188.256 39.1864H175.487V11.2377H187.693C190.683 11.2377 192.966 11.9737 194.54 13.4463C195.896 14.7133 196.574 16.3124 196.574 18.2434C196.574 20.7414 195.327 22.5696 192.832 23.7286C194.733 24.1634 196.211 24.9898 197.265 26.2083C198.342 27.4629 198.881 29.0443 198.881 30.9504ZM188.728 19.8358C188.728 18.134 187.687 17.2834 185.604 17.2834H184.042V22.3882H185.005C187.487 22.3882 188.728 21.5377 188.728 19.8358ZM190.035 30.5163C190.035 28.6579 188.898 27.7288 186.621 27.7288H184.041V33.0687H186.275C187.353 33.0687 188.231 32.8637 188.909 32.4531C189.66 32.0066 190.035 31.3609 190.035 30.5163Z" fill="#183D61"/>
<path d="M220.95 18.3514H214.956V39.1864H206.292V18.3514H200.261V11.2377H220.95V18.3514Z" fill="#183D61"/>
<path d="M252.573 25.2124C252.573 29.3756 251.198 32.8395 248.449 35.6027C245.543 38.5356 241.686 40.0017 236.879 40.0017C232.072 40.0017 228.209 38.5356 225.29 35.6027C222.541 32.8395 221.167 29.3756 221.167 25.2124C221.167 21.0492 222.541 17.5853 225.29 14.822C228.209 11.8898 232.072 10.4231 236.879 10.4231C241.686 10.4231 245.543 11.8892 248.449 14.822C251.198 17.5853 252.573 21.0492 252.573 25.2124ZM243.564 25.2124C243.564 23.1969 242.903 21.5259 241.584 20.1986C240.313 18.9198 238.744 18.28 236.88 18.28C235.015 18.28 233.441 18.9198 232.157 20.1986C230.837 21.5259 230.177 23.1976 230.177 25.2124C230.177 27.2278 230.837 28.8995 232.157 30.2268C233.441 31.5063 235.014 32.1454 236.88 32.1454C238.744 32.1454 240.313 31.5056 241.584 30.2268C242.903 28.8989 243.564 27.2278 243.564 25.2124Z" fill="#183D61"/>
<path d="M282.179 39.1871H273.515V18.2067H264.797V39.1871H256.132V11.2377H282.179V39.1871V39.1871Z" fill="#5A8EC6"/>
<path d="M314.51 39.1871H305.32L303.793 33.9559H294.929L293.404 39.1871H284.213L293.64 11.2377H305.083L314.51 39.1871ZM301.996 27.8368L299.326 18.9486L296.691 27.8368H301.996Z" fill="#5A8EC6"/>
<path d="M339.358 20.7231C339.358 23.6075 338.462 25.8371 336.67 27.4118C334.878 28.9866 332.299 29.7744 328.932 29.7744H325.245V39.1871H316.581V11.2377H328.224C331.942 11.2377 334.763 12.1308 336.688 13.9165C338.468 15.558 339.358 17.8269 339.358 20.7231ZM330.494 20.5057C330.494 18.5027 329.277 17.5008 326.843 17.5008H325.245V23.5106H326.77C329.253 23.5106 330.494 22.5094 330.494 20.5057Z" fill="#5A8EC6"/>
<path d="M370 39.1871H359.519L351.436 26.7695V39.1871H342.772V11.2377H351.436V22.9494L359.41 11.2377H369.327L359.41 24.7239L370 39.1871Z" fill="#5A8EC6"/>
<path d="M143.251 46.7448H146.168C147.539 46.7448 148.53 46.949 149.142 47.357C149.754 47.7656 150.061 48.4106 150.061 49.2932C150.061 49.9035 149.89 50.407 149.549 50.8032C149.207 51.2 148.709 51.4567 148.055 51.5739V51.6439C149.623 51.9111 150.407 52.7329 150.407 54.108C150.407 55.0279 150.095 55.7456 149.471 56.2622C148.847 56.7782 147.975 57.0369 146.854 57.0369H143.252V46.7448H143.251ZM144.452 51.1515H146.429C147.277 51.1515 147.887 51.0193 148.258 50.7541C148.63 50.4889 148.816 50.0417 148.816 49.4131C148.816 48.8355 148.609 48.4191 148.195 48.1637C147.78 47.9077 147.121 47.78 146.217 47.78H144.451V51.1515H144.452ZM144.452 52.1652V56.016H146.606C147.44 56.016 148.067 55.8556 148.488 55.5341C148.91 55.2126 149.12 54.7091 149.12 54.0241C149.12 53.3857 148.905 52.9169 148.474 52.6163C148.043 52.3158 147.387 52.1658 146.507 52.1658H144.452V52.1652Z" fill="#8E8D8D"/>
<path d="M156.513 52.5103H158.626C159.61 52.5103 160.339 52.6923 160.812 53.0557C161.285 53.4191 161.521 53.9626 161.521 54.6855C161.521 55.4601 161.27 56.0455 160.769 56.4417C160.268 56.8385 159.529 57.0362 158.554 57.0362H155.34V49.3207H156.513V52.5103H156.513ZM156.513 53.5167V56.058H158.498C159.741 56.058 160.363 55.6238 160.363 54.7556C160.363 54.3241 160.219 54.0091 159.932 53.812C159.645 53.6149 159.155 53.5167 158.463 53.5167H156.513ZM163.994 57.0362H162.821V49.3207H163.994V57.0362Z" fill="#8E8D8D"/>
<path d="M175.653 51.257C175.653 51.7592 175.509 52.1403 175.219 52.4009C174.929 52.6615 174.523 52.8364 174.001 52.9254V52.9889C174.66 53.078 175.141 53.2705 175.445 53.5665C175.748 53.8624 175.9 54.2704 175.9 54.7916C175.9 55.5099 175.635 56.0632 175.106 56.4528C174.576 56.8424 173.802 57.0369 172.785 57.0369H169.373V49.3207H172.771C174.693 49.3207 175.653 49.9664 175.653 51.257ZM174.509 51.3696C174.509 50.9944 174.364 50.7279 174.074 50.5708C173.785 50.4136 173.346 50.335 172.757 50.335H170.546V52.5103H172.531C173.256 52.5103 173.768 52.4212 174.064 52.2431C174.361 52.0644 174.509 51.7736 174.509 51.3696ZM174.727 54.7137C174.727 54.2959 174.568 53.9921 174.25 53.8022C173.932 53.6123 173.406 53.5173 172.672 53.5173H170.545V56.0586H172.7C174.052 56.058 174.727 55.6101 174.727 54.7137Z" fill="#8E8D8D"/>
<path d="M187.178 53.1716C187.178 54.4295 186.86 55.4117 186.225 56.1175C185.589 56.8241 184.711 57.177 183.59 57.177C182.898 57.177 182.283 57.0153 181.746 56.6911C181.21 56.367 180.795 55.9028 180.503 55.2971C180.212 54.6914 180.066 53.9829 180.066 53.1709C180.066 51.9131 180.381 50.9335 181.012 50.2315C181.643 49.5303 182.518 49.1793 183.639 49.1793C184.723 49.1793 185.583 49.5381 186.221 50.2564C186.859 50.9754 187.178 51.9471 187.178 53.1716ZM181.28 53.1716C181.28 54.1571 181.478 54.9081 181.873 55.4241C182.269 55.9401 182.85 56.1987 183.618 56.1987C184.385 56.1987 184.968 55.942 185.366 55.428C185.764 54.914 185.963 54.1623 185.963 53.1722C185.963 52.1914 185.764 51.4462 185.366 50.9368C184.968 50.4273 184.381 50.1733 183.604 50.1733C182.836 50.1733 182.257 50.4241 181.866 50.9263C181.475 51.4285 181.28 52.177 181.28 53.1716Z" fill="#8E8D8D"/>
<path d="M193.603 52.524C195.068 52.524 195.8 52.1206 195.8 51.3133C195.8 50.553 195.207 50.1726 194.02 50.1726C193.658 50.1726 193.328 50.2053 193.032 50.2708C192.735 50.337 192.346 50.4679 191.866 50.665L191.449 49.7149C192.25 49.358 193.123 49.1799 194.07 49.1799C194.96 49.1799 195.661 49.362 196.175 49.7254C196.688 50.0894 196.945 50.5858 196.945 51.2144C196.945 52.0781 196.462 52.6432 195.497 52.911V52.9673C196.09 53.1408 196.523 53.3883 196.796 53.7098C197.07 54.0313 197.206 54.434 197.206 54.9173C197.206 55.631 196.918 56.1856 196.341 56.5824C195.764 56.9792 194.967 57.177 193.95 57.177C192.834 57.177 191.972 57.0107 191.365 56.6774V55.6074C192.227 56.0108 193.098 56.2131 193.978 56.2131C194.656 56.2131 195.168 56.0972 195.514 55.8648C195.861 55.6323 196.034 55.2984 196.034 54.8616C196.034 53.9652 195.301 53.5173 193.837 53.5173H192.763V52.5246H193.603V52.524Z" fill="#8E8D8D"/>
<path d="M213.778 55.91L213.997 55.2552L214.3 54.4242L216.398 49.3345H217.888V57.0356H216.849V50.665L216.708 51.073L216.299 52.1501L214.3 57.0356H213.318L211.319 52.1357C211.069 51.5071 210.897 51.0166 210.803 50.6644V57.0349H209.758V49.3351H211.191L213.218 54.2278C213.422 54.7438 213.608 55.3049 213.778 55.91Z" fill="#8E8D8D"/>
<path d="M222.054 49.3207H223.311L225.006 53.7203C225.378 54.7248 225.609 55.4497 225.698 55.8956H225.755C225.816 55.6566 225.945 55.2467 226.14 54.6672C226.335 54.0877 226.975 52.3053 228.058 49.3207H229.315L225.987 58.1062C225.658 58.9744 225.273 59.59 224.832 59.954C224.392 60.3174 223.851 60.4995 223.212 60.4995C222.853 60.4995 222.501 60.4595 222.152 60.3796V59.4433C222.411 59.4996 222.7 59.5277 223.021 59.5277C223.826 59.5277 224.401 59.0772 224.744 58.1762L225.175 57.0781L222.054 49.3207Z" fill="#8E8D8D"/>
<path d="M236.56 57.177C235.439 57.177 234.571 56.8332 233.956 56.1457C233.342 55.4582 233.035 54.4858 233.035 53.2279C233.035 51.9373 233.347 50.94 233.971 50.2361C234.595 49.5322 235.483 49.1806 236.638 49.1806C237.01 49.1806 237.382 49.2205 237.753 49.3004C238.125 49.3803 238.418 49.474 238.629 49.582L238.269 50.5747C238.01 50.4712 237.728 50.3861 237.422 50.318C237.115 50.2499 236.845 50.2158 236.61 50.2158C235.037 50.2158 234.25 51.2151 234.25 53.2148C234.25 54.163 234.442 54.8904 234.826 55.3973C235.209 55.9041 235.778 56.1575 236.531 56.1575C237.177 56.1575 237.838 56.0193 238.516 55.7423V56.7769C237.998 57.0434 237.346 57.177 236.56 57.177Z" fill="#8E8D8D"/>
<path d="M249.928 53.1716C249.928 54.4295 249.61 55.4117 248.974 56.1175C248.338 56.8241 247.46 57.177 246.34 57.177C245.647 57.177 245.033 57.0153 244.496 56.6911C243.959 56.367 243.545 55.9028 243.253 55.2971C242.961 54.6914 242.815 53.9829 242.815 53.1709C242.815 51.9131 243.13 50.9335 243.761 50.2315C244.392 49.5303 245.268 49.1793 246.389 49.1793C247.472 49.1793 248.332 49.5381 248.97 50.2564C249.609 50.9754 249.928 51.9471 249.928 53.1716ZM244.03 53.1716C244.03 54.1571 244.228 54.9081 244.623 55.4241C245.019 55.9401 245.6 56.1987 246.368 56.1987C247.135 56.1987 247.718 55.942 248.116 55.428C248.514 54.914 248.713 54.1623 248.713 53.1722C248.713 52.1914 248.514 51.4462 248.116 50.9368C247.718 50.4273 247.131 50.1733 246.354 50.1733C245.587 50.1733 245.007 50.4241 244.617 50.9263C244.225 51.4285 244.03 52.177 244.03 53.1716Z" fill="#8E8D8D"/>
<path d="M258.479 57.177C257.976 57.177 257.515 57.0847 257.098 56.8987C256.682 56.7134 256.332 56.4285 256.049 56.0435H255.964C256.021 56.494 256.049 56.921 256.049 57.325V60.5001H254.877V49.3207H255.83L255.993 50.3769H256.049C256.351 49.9546 256.702 49.6494 257.102 49.4615C257.502 49.2736 257.961 49.1799 258.479 49.1799C259.506 49.1799 260.297 49.5296 260.856 50.2289C261.414 50.9282 261.693 51.9091 261.693 53.1716C261.693 54.4386 261.409 55.4234 260.842 56.1247C260.274 56.8267 259.487 57.177 258.479 57.177ZM258.31 50.1726C257.519 50.1726 256.947 50.3907 256.594 50.8274C256.24 51.2642 256.059 51.9582 256.05 52.911V53.1716C256.05 54.2553 256.231 55.0312 256.594 55.4981C256.956 55.9649 257.538 56.1987 258.338 56.1987C259.007 56.1987 259.531 55.9289 259.91 55.3894C260.289 54.8498 260.479 54.106 260.479 53.1578C260.479 52.1959 260.289 51.458 259.91 50.944C259.531 50.4299 258.997 50.1726 258.31 50.1726Z" fill="#8E8D8D"/>
<path d="M271.396 57.0362L271.163 55.9381H271.106C270.72 56.4214 270.335 56.7488 269.951 56.9203C269.567 57.0912 269.088 57.177 268.514 57.177C267.746 57.177 267.144 56.9799 266.709 56.5857C266.273 56.1915 266.055 55.631 266.055 54.9035C266.055 53.3458 267.305 52.5292 269.806 52.4539L271.119 52.412V51.9334C271.119 51.3277 270.989 50.8811 270.727 50.5923C270.466 50.3036 270.048 50.1595 269.473 50.1595C268.828 50.1595 268.098 50.3566 267.284 50.7508L266.924 49.857C267.305 49.6507 267.723 49.4884 268.178 49.3712C268.632 49.2539 269.088 49.195 269.544 49.195C270.468 49.195 271.152 49.3993 271.596 49.8072C272.042 50.2158 272.264 50.87 272.264 51.7716V57.0375H271.396V57.0362ZM268.747 56.2131C269.477 56.2131 270.05 56.0141 270.467 55.6147C270.883 55.2159 271.092 54.6573 271.092 53.939V53.2423L269.92 53.2914C268.987 53.3242 268.314 53.4689 267.903 53.7242C267.491 53.9803 267.285 54.3777 267.285 54.9173C267.285 55.3396 267.413 55.6611 267.67 55.8818C267.926 56.1025 268.286 56.2131 268.747 56.2131Z" fill="#8E8D8D"/>
<path d="M291.606 51.257C291.606 51.7592 291.462 52.1403 291.172 52.4009C290.882 52.6615 290.476 52.8364 289.954 52.9254V52.9889C290.613 53.078 291.095 53.2705 291.399 53.5665C291.702 53.8624 291.854 54.2704 291.854 54.7916C291.854 55.5099 291.589 56.0632 291.059 56.4528C290.529 56.8424 289.756 57.0369 288.738 57.0369H285.326V49.3207H288.724C290.646 49.3207 291.606 49.9664 291.606 51.257ZM290.462 51.3696C290.462 50.9944 290.316 50.7279 290.027 50.5708C289.738 50.4136 289.299 50.335 288.71 50.335H286.499V52.5103H288.484C289.209 52.5103 289.72 52.4212 290.017 52.2431C290.313 52.0644 290.462 51.7736 290.462 51.3696ZM290.681 54.7137C290.681 54.2959 290.522 53.9921 290.204 53.8022C289.886 53.6123 289.36 53.5173 288.625 53.5173H286.499V56.0586H288.653C290.005 56.058 290.681 55.6101 290.681 54.7137Z" fill="#8E8D8D"/>
<path d="M308.949 57.0362L305.445 47.9129H305.389C305.454 48.6358 305.487 49.4942 305.487 50.4895V57.0362H304.378V46.7448H306.186L309.457 55.2342H309.513L312.812 46.7448H314.607V57.0369H313.406V50.4051C313.406 49.6448 313.439 48.8192 313.505 47.9273H313.448L309.917 57.0369H308.949V57.0362Z" fill="#8E8D8D"/>
<path d="M326.838 53.1716C326.838 54.4295 326.52 55.4117 325.884 56.1175C325.248 56.8241 324.369 57.177 323.249 57.177C322.557 57.177 321.942 57.0153 321.406 56.6911C320.869 56.367 320.454 55.9028 320.163 55.2971C319.871 54.6914 319.724 53.9829 319.724 53.1709C319.724 51.9131 320.04 50.9335 320.671 50.2315C321.302 49.5303 322.178 49.1793 323.299 49.1793C324.381 49.1793 325.242 49.5381 325.88 50.2564C326.519 50.9754 326.838 51.9471 326.838 53.1716ZM320.94 53.1716C320.94 54.1571 321.138 54.9081 321.533 55.4241C321.929 55.9401 322.51 56.1987 323.278 56.1987C324.045 56.1987 324.628 55.942 325.026 55.428C325.424 54.914 325.623 54.1623 325.623 53.1722C325.623 52.1914 325.424 51.4462 325.026 50.9368C324.628 50.4273 324.04 50.1733 323.264 50.1733C322.496 50.1733 321.917 50.4241 321.527 50.9263C321.135 51.4285 320.94 52.177 320.94 53.1716Z" fill="#8E8D8D"/>
<path d="M334.881 57.177C333.76 57.177 332.892 56.8332 332.278 56.1457C331.663 55.4582 331.356 54.4858 331.356 53.2279C331.356 51.9373 331.668 50.94 332.292 50.2361C332.916 49.5322 333.804 49.1806 334.959 49.1806C335.331 49.1806 335.703 49.2205 336.074 49.3004C336.446 49.3803 336.739 49.474 336.95 49.582L336.59 50.5747C336.331 50.4712 336.049 50.3861 335.743 50.318C335.436 50.2499 335.166 50.2158 334.931 50.2158C333.358 50.2158 332.571 51.2151 332.571 53.2148C332.571 54.163 332.763 54.8904 333.147 55.3973C333.53 55.9041 334.099 56.1575 334.852 56.1575C335.498 56.1575 336.159 56.0193 336.837 55.7423V56.7769C336.319 57.0434 335.667 57.177 334.881 57.177Z" fill="#8E8D8D"/>
<path d="M346.08 49.3207H347.366L344.025 53.0446L347.642 57.0362H346.271L342.74 53.1291V57.0362H341.568V49.3207H342.74V53.0727L346.08 49.3207Z" fill="#8E8D8D"/>
<path d="M358.248 51.257C358.248 51.7592 358.104 52.1403 357.814 52.4009C357.524 52.6615 357.118 52.8364 356.596 52.9254V52.9889C357.256 53.078 357.737 53.2705 358.041 53.5665C358.344 53.8624 358.496 54.2704 358.496 54.7916C358.496 55.5099 358.231 56.0632 357.701 56.4528C357.172 56.8424 356.398 57.0369 355.381 57.0369H351.969V49.3207H355.366C357.287 49.3207 358.248 49.9664 358.248 51.257ZM357.104 51.3696C357.104 50.9944 356.959 50.7279 356.67 50.5708C356.38 50.4136 355.941 50.335 355.352 50.335H353.141V52.5103H355.126C355.852 52.5103 356.363 52.4212 356.659 52.2431C356.955 52.0644 357.104 51.7736 357.104 51.3696ZM357.323 54.7137C357.323 54.2959 357.164 53.9921 356.846 53.8022C356.528 53.6123 356.002 53.5173 355.267 53.5173H353.141V56.0586H355.295C356.647 56.058 357.323 55.6101 357.323 54.7137Z" fill="#8E8D8D"/>
<path d="M366.361 57.177C365.218 57.177 364.314 56.8299 363.653 56.1352C362.991 55.4405 362.66 54.4759 362.66 53.2416C362.66 51.9982 362.967 51.0101 363.582 50.278C364.196 49.546 365.021 49.1799 366.057 49.1799C367.028 49.1799 367.795 49.4982 368.36 50.134C368.925 50.7698 369.208 51.6086 369.208 52.6504V53.3896H363.875C363.898 54.2952 364.128 54.9828 364.563 55.4522C364.999 55.9217 365.612 56.1562 366.404 56.1562C367.237 56.1562 368.061 55.9826 368.876 55.6349V56.6767C368.461 56.8555 368.07 56.9832 367.7 57.0604C367.33 57.1384 366.884 57.177 366.361 57.177ZM366.043 50.1589C365.422 50.1589 364.926 50.3605 364.557 50.7645C364.187 51.1686 363.969 51.7264 363.903 52.4402H367.95C367.95 51.7035 367.785 51.1391 367.455 50.7469C367.127 50.3546 366.656 50.1589 366.043 50.1589Z" fill="#8E8D8D"/>
</g>
<defs>
<linearGradient id="paint0_linear_1_1046" x1="20.1965" y1="22.7639" x2="69.4465" y2="22.7639" gradientUnits="userSpaceOnUse">
<stop stop-color="#274668"/>
<stop offset="1" stop-color="#3B608D"/>
</linearGradient>
<clipPath id="clip0_1_1046">
<rect width="370" height="64" fill="white"/>
</clipPath>
</defs>
</svg>
