<svg width="18" height="18" viewBox="0 0 18 18" fill="none" xmlns="http://www.w3.org/2000/svg"><path d="M15.364 2.63602C13.6641 0.936176 11.404 0 9 0C6.59602 0 4.33593 0.936176 2.63602 2.63602C0.936176 4.33593 0 6.59602 0 9C0 11.404 0.936176 13.6641 2.63602 15.364C4.33593 17.0638 6.59602 18 9 18C10.6458 18 12.2561 17.5515 13.6569 16.703C13.989 16.5017 14.0952 16.0694 13.894 15.7373C13.6927 15.4051 13.2604 15.299 12.9283 15.5002C11.7473 16.2156 10.3888 16.5938 9 16.5938C4.81279 16.5938 1.40625 13.1872 1.40625 9C1.40625 4.81279 4.81279 1.40625 9 1.40625C13.1872 1.40625 16.5938 4.81279 16.5938 9C16.5938 10.4973 16.1485 11.9547 15.3061 13.2147C15.0903 13.5375 15.177 13.9742 15.4998 14.19C15.8227 14.4059 16.2593 14.3191 16.4751 13.9963C17.4727 12.5042 18 10.7764 18 9C18 6.59602 17.0638 4.33593 15.364 2.63602Z"/><path d="M6.83086 13.1342C6.93717 13.1917 7.05168 13.2189 7.1646 13.2189C7.41452 13.2189 7.65658 13.0853 7.78374 12.85L11.5844 5.81876C11.7691 5.47711 11.6419 5.05049 11.3002 4.86588C10.9586 4.68121 10.5319 4.80847 10.3474 5.15005L6.54669 12.1813C6.36202 12.5229 6.48925 12.9495 6.83086 13.1342Z"/><path d="M7.83984 6.53906C7.83984 5.5698 7.05129 4.78125 6.08203 4.78125C5.11277 4.78125 4.32422 5.5698 4.32422 6.53906C4.32422 7.50832 5.11277 8.29688 6.08203 8.29688C7.05129 8.29688 7.83984 7.50832 7.83984 6.53906ZM6.08203 6.89062C5.88818 6.89062 5.73047 6.73291 5.73047 6.53906C5.73047 6.34521 5.88818 6.1875 6.08203 6.1875C6.27588 6.1875 6.43359 6.34521 6.43359 6.53906C6.43359 6.73291 6.27588 6.89062 6.08203 6.89062Z"/><path d="M11.8828 13.2188C12.8521 13.2188 13.6406 12.4302 13.6406 11.4609C13.6406 10.4917 12.8521 9.70312 11.8828 9.70312C10.9136 9.70312 10.125 10.4917 10.125 11.4609C10.125 12.4302 10.9136 13.2188 11.8828 13.2188ZM11.8828 11.1094C12.0767 11.1094 12.2344 11.2671 12.2344 11.4609C12.2344 11.6548 12.0767 11.8125 11.8828 11.8125C11.689 11.8125 11.5312 11.6548 11.5312 11.4609C11.5312 11.2671 11.689 11.1094 11.8828 11.1094Z"/></svg>