<svg width="135" height="71" viewBox="0 0 135 71" fill="none" xmlns="http://www.w3.org/2000/svg"><path d="M30.0354 4.04761H131.138V35.2563L102.251 70.5788H32.9774L5.63893 35.2563L30.0354 4.04761Z" fill="#A5C33B"/><path d="M131.138 35.2563L12.8275 44.5458L5.63893 35.2563H131.138Z" fill="#7FAF42"/><path d="M27.9344 0L0.220276 35.9642L2.85221 38.8176L30.0353 4.04761" fill="#A5C33B"/><path d="M134.057 0H27.9124V4.04762H134.057V0Z" fill="#A5C33B"/><path d="M30.0354 4.04761L30.8539 4.06963L6.14793 35.8755L5.63893 35.2123L30.0354 4.04761Z" fill="#7FAF42"/><path d="M53.5251 4.04761L21.9181 14.3991L30.0353 4.04761H53.5251Z" fill="#7FAF42"/><path d="M131.005 35.2563L5.77167 35.2343L5.79429 31.2307H131.005V35.2563Z" fill="#A5C33B"/><path d="M131.005 30.2354V31.2307H9.73119L10.5271 30.2354H131.005Z" fill="#B2D143"/><path d="M56.8428 4.04761L56.8208 31.2307H53.5251V4.04761H56.8428Z" fill="#A5C33B"/><path d="M53.5251 4.04761H52.7065V31.2307H53.5251V4.04761Z" fill="#B2D143"/><path d="M56.8428 4.04761H57.6608V31.2307H56.8428V4.04761Z" fill="#7FAF42"/><path d="M94.3769 4.04761L94.3549 31.2307H91.0818V4.04761H94.3769Z" fill="#A5C33B"/><path d="M90.2411 4.04761H91.0817V31.2307H90.2411V4.04761Z" fill="#B2D143"/><defs><clipPath id="clip0_1_573"><path fill="#fff" d="M0 0H134.057V70.546H0z"/></clipPath></defs></svg>