<svg width="56" height="71" viewBox="0 0 56 71" fill="none" xmlns="http://www.w3.org/2000/svg"><path fill-rule="evenodd" clip-rule="evenodd" d="M17.2692 60.4648C20.0262 60.4648 22.2562 62.7104 22.2562 65.4673C22.2562 68.2397 20.0262 70.4698 17.2692 70.4698C14.5123 70.4698 12.2822 68.2397 12.2822 65.4673C12.2822 62.7104 14.5123 60.4648 17.2692 60.4648ZM44.6208 60.4648C47.3778 60.4648 49.6079 62.7104 49.6079 65.4673C49.6079 68.2397 47.3778 70.4698 44.6208 70.4698C41.8639 70.4698 39.6338 68.2397 39.6338 65.4673C39.6338 62.7104 41.8639 60.4648 44.6208 60.4648Z" fill="#333745"/><path d="M46.2621 17.0364H3.09747V17.0519V17.0364L5.25017 55.9731C5.25017 57.5685 6.53548 58.8538 8.13095 58.8538H47.6248C49.2048 58.8538 50.4901 57.5685 50.4901 55.9731L52.6583 17.0364H46.2776H46.2621V17.0364Z" fill="#A5C33B"/><path d="M54.533 13.6449H2.63312V14.3729H54.533V13.6449Z" fill="#7FAF42"/><path fill-rule="evenodd" clip-rule="evenodd" d="M10.8415 17.2382V21.5746L17.2692 18.7867V17.2376H10.8415V17.2382ZM32.4315 17.2382V21.5746L38.8438 18.7867V17.2376H32.4315V17.2382ZM25.2763 17.2382V21.5746L31.6886 18.7867V17.2376H25.2763V17.2382ZM18.0277 17.2382V21.5746L24.4554 18.7867V17.2376H18.0277V17.2382ZM46.82 17.2227V21.5436L53.0613 18.8331L53.1542 17.2222H46.82V17.2227ZM9.95862 17.2382H4.01132L4.2435 21.3424L9.95862 18.8486V17.2382Z" fill="#7FAF42"/><path d="M14.8218 19.0034H15.5344V56.8559H14.8218V19.0034Z" fill="#7FAF42"/><path d="M6.33426 56.7785C6.72122 57.8626 7.75887 58.6526 8.99834 58.6526H48.1672C49.3905 58.6526 50.4282 57.8626 50.8312 56.7785H6.33426Z" fill="#7FAF42"/><path d="M41.3989 56.7785H42.1115V20.4905L41.3989 20.8001" fill="#B2D143"/><path d="M39.6338 17.2382V21.5746L46.0609 18.7867V17.2382" fill="#7FAF42"/><path fill-rule="evenodd" clip-rule="evenodd" d="M46.4639 58.8538V65.0797C46.4639 66.1329 45.7668 66.6597 45.0084 66.5978C44.2338 66.5204 43.6611 65.8697 42.608 64.5535C41.5704 63.2372 39.1855 60.2636 39.1855 60.2636V58.8538H46.4639ZM18.1366 58.8538V65.0797C18.1366 66.1329 17.424 66.6597 16.6649 66.5978C15.8904 66.5204 15.3332 65.8697 14.2801 64.5535C13.2424 63.2372 10.8415 60.2636 10.8415 60.2636V58.8538H18.1205H18.1366Z" fill="#B2D143"/><path fill-rule="evenodd" clip-rule="evenodd" d="M52.6744 30.976L53.1232 23.232H54.2073V30.976H52.6744ZM3.26775 30.976L2.81887 23.232H1.54904V30.976H3.26775Z" fill="#7FAF42"/><path fill-rule="evenodd" clip-rule="evenodd" d="M53.6346 14.3575H2.12174V13.6758H53.6346V14.3575V14.3575ZM0 3.09747V30.9759H2.12174V17.1138H53.6346V30.9754H55.7564V13.6752L55.679 3.70113C48.0743 6.36521 38.7509 7.92913 28.6679 7.92913C17.8419 7.92973 7.89877 6.11756 0 3.09747Z" fill="#A5C33B"/><path d="M54.3008 0H1.45557C0.65069 0 0 0.712604 0 1.59547V2.16877C7.89877 5.6538 17.8728 7.74458 28.7143 7.74458C38.8122 7.74458 48.1362 5.93241 55.7564 2.86589L55.7409 1.59547C55.7409 0.712604 55.1057 0 54.3008 0Z" fill="#B2D143"/><defs><clipPath id="clip0_1_58"><path fill="#fff" d="M0 0H55.756V70.546H0z"/></clipPath></defs></svg>