<svg width="18" height="18" viewBox="0 0 18 18" fill="none" xmlns="http://www.w3.org/2000/svg"><path d="M17.9544 15.4238C17.8752 15.0437 17.5028 14.7997 17.1227 14.8788C16.7425 14.958 16.4985 15.3303 16.5777 15.7105C16.6233 15.9294 16.569 16.1539 16.4287 16.3263C16.3475 16.4262 16.1664 16.5937 15.8663 16.5937H12.6914C12.3031 16.5937 11.9883 16.9085 11.9883 17.2969C11.9883 17.6852 12.3031 18 12.6914 18H15.8663C16.5107 18 17.1133 17.7134 17.5197 17.2136C17.9282 16.7113 18.0866 16.059 17.9544 15.4238Z"/><path d="M9.71425 9.58954C12.0243 9.8023 14.1256 11.0404 15.4343 12.9922C15.6505 13.3148 16.0873 13.401 16.4098 13.1847C16.7324 12.9684 16.8185 12.5316 16.6023 12.2091C15.4485 10.4883 13.7731 9.23734 11.8628 8.60868C13.027 7.73578 13.7816 6.345 13.7816 4.78125C13.7816 2.14485 11.6367 0 9.00037 0C6.364 0 4.21912 2.14485 4.21912 4.78125C4.21912 6.34602 4.9747 7.73761 6.14016 8.61036C5.07243 8.96186 4.07048 9.5085 3.19361 10.2297C1.58584 11.5522 0.467981 13.3969 0.0460007 15.4238C-0.0862571 16.059 0.0721922 16.7113 0.480637 17.2136C0.887044 17.7134 1.48973 18 2.13411 18H5.20349C5.59183 18 5.90662 17.6852 5.90662 17.2969C5.90662 16.9085 5.59183 16.5938 5.20349 16.5938H2.13404C1.83387 16.5938 1.65282 16.4262 1.57157 16.3264C1.43133 16.1539 1.37705 15.9294 1.42265 15.7104C2.11115 12.4034 4.90242 9.93772 8.21438 9.5973L6.87208 15.7043C6.82065 15.9385 6.89208 16.1828 7.06164 16.3524L8.46796 17.7589C8.5998 17.8908 8.77867 17.9648 8.96521 17.9648C9.15172 17.9648 9.33056 17.8907 9.46243 17.7589L10.8686 16.3524C11.0382 16.1828 11.1096 15.9385 11.0581 15.7043L9.71425 9.58954ZM5.62537 4.78125C5.62537 2.92025 7.13937 1.40625 9.00037 1.40625C10.8614 1.40625 12.3754 2.92025 12.3754 4.78125C12.3754 6.58607 10.9514 8.06446 9.16789 8.1521C9.11213 8.15108 9.0563 8.15041 9.00037 8.15041C8.94549 8.15041 8.89068 8.15122 8.83587 8.15221C7.05099 8.06611 5.62537 6.58709 5.62537 4.78125ZM8.96518 16.2673L8.32825 15.6302L8.96518 12.7325L9.60203 15.6303L8.96518 16.2673Z"/></svg>