<svg width="18" height="18" viewBox="0 0 18 18" fill="none" xmlns="http://www.w3.org/2000/svg"><path d="M7.6 0H0.666667C0.3 0 0 0.3 0 0.666667V7.6C0 7.96667 0.3 8.26667 0.666667 8.26667H7.6C7.96667 8.26667 8.26667 7.96667 8.26667 7.6V0.666667C8.26667 0.3 7.96667 0 7.6 0ZM6.93333 6.93333H1.33333V1.33333H6.93333V6.93333Z"/><path d="M17.3333 0H10.4C10.0333 0 9.73334 0.3 9.73334 0.666667V7.6C9.73334 7.96667 10.0333 8.26667 10.4 8.26667H17.3333C17.7 8.26667 18 7.96667 18 7.6V0.666667C18 0.3 17.7 0 17.3333 0ZM16.6667 6.93333H11.0667V1.33333H16.6667V6.93333Z"/><path d="M7.6 9.73334H0.666667C0.3 9.73334 0 10.0333 0 10.4V17.3333C0 17.7 0.3 18 0.666667 18H7.6C7.96667 18 8.26667 17.7 8.26667 17.3333V10.4C8.26667 10.0333 7.96667 9.73334 7.6 9.73334ZM6.93333 16.6667H1.33333V11.0667H6.93333V16.6667Z"/><path d="M17.3333 9.73334H10.4C10.0333 9.73334 9.73334 10.0333 9.73334 10.4V17.3333C9.73334 17.7 10.0333 18 10.4 18H17.3333C17.7 18 18 17.7 18 17.3333V10.4C18 10.0333 17.7 9.73334 17.3333 9.73334ZM16.6667 16.6667H11.0667V11.0667H16.6667V16.6667Z"/></svg>