<svg width="25" height="16" viewBox="0 0 25 16" fill="none" xmlns="http://www.w3.org/2000/svg"><path d="M8.05157 8.38941C8.31464 8.48457 8.60686 8.34937 8.70278 8.08423L9.69935 5.33002C9.79493 5.06593 9.65829 4.77438 9.39417 4.67881C9.13014 4.5833 8.83853 4.71987 8.74296 4.98399L7.74638 7.7382C7.65084 8.00229 7.78748 8.29384 8.05157 8.38941V8.38941Z"/><path d="M10.392 8.38941C10.655 8.48457 10.9472 8.34937 11.0432 8.08423L12.0397 5.33002C12.1353 5.06593 11.9986 4.77438 11.7345 4.67881C11.4705 4.5833 11.1789 4.71987 11.0833 4.98399L10.0868 7.7382C9.99123 8.00229 10.1279 8.29384 10.392 8.38941V8.38941Z"/><path d="M12.7325 8.38941C12.9955 8.48457 13.2878 8.34937 13.3837 8.08423L14.3803 5.33002C14.4758 5.06593 14.3392 4.77438 14.0751 4.67881C13.8111 4.5833 13.5194 4.71987 13.4239 4.98399L12.4273 7.7382C12.3317 8.00229 12.4684 8.29384 12.7325 8.38941V8.38941Z"/><path d="M24.9487 7.67239L24.5168 5.5114C24.1772 3.81187 22.6727 2.57836 20.9396 2.57836H18.6617V1.5637C18.6617 0.701485 17.9602 0 17.098 0H5.46153C4.80517 0 4.21418 0.414741 3.99101 1.03202L0.0844177 11.8361C-0.245223 12.7478 0.431614 13.7122 1.40105 13.7122H3.23304C3.52613 15.0197 4.69547 16 6.09016 16C7.48485 16 8.65419 15.0197 8.94728 13.7122H17.1462C17.4393 15.0197 18.6087 16 20.0034 16C21.3981 16 22.5674 15.0197 22.8605 13.7122H24.1706C24.6088 13.7122 24.9641 13.3569 24.9641 12.9187C24.9641 7.40023 24.971 7.78427 24.9487 7.67239V7.67239ZM5.47784 1.58696H17.0748V12.1252H8.86099C8.46658 10.9735 7.37391 10.1428 6.09016 10.1428C4.80641 10.1428 3.71374 10.9735 3.31933 12.1252H1.66741L5.47784 1.58696ZM6.09016 14.413C5.35039 14.413 4.74854 13.8112 4.74854 13.0714C4.74854 12.3316 5.35039 11.7298 6.09016 11.7298C6.82993 11.7298 7.43178 12.3316 7.43178 13.0714C7.43178 13.8112 6.82993 14.413 6.09016 14.413V14.413ZM20.0034 14.413C19.2636 14.413 18.6617 13.8112 18.6617 13.0714C18.6617 12.3316 19.2636 11.7298 20.0034 11.7298C20.7431 11.7298 21.345 12.3316 21.345 13.0714C21.345 13.8112 20.7431 14.413 20.0034 14.413ZM23.3771 12.1252H22.7742C22.1928 10.4276 20.2394 9.65272 18.6617 10.4696V4.16537H20.9396C21.9188 4.16537 22.7687 4.86229 22.9606 5.82245L23.3771 7.90642V12.1252H23.3771Z"/></svg>