<svg width="23" height="18" viewBox="0 0 23 18" fill="none" xmlns="http://www.w3.org/2000/svg">
<path d="M4.41349 1.48368C4.64731 0.60866 5.43997 0 6.34569 0H20.3954C21.7099 0 22.6669 1.24639 22.3276 2.51632L18.5865 16.5163C18.3527 17.3913 17.56 18 16.6543 18H2.60461C1.29012 18 0.33306 16.7536 0.672411 15.4837L4.41349 1.48368Z" fill="#E5E5E5"/>
<path d="M16.5223 5.75721C16.0766 5.31091 15.352 5.31091 14.9063 5.75721L9.99993 10.663L7.95075 8.6144C7.50503 8.16811 6.78044 8.16811 6.33472 8.6144C5.88843 9.06069 5.88843 9.78413 6.33472 10.2304L9.19191 13.0876C9.41478 13.3111 9.70735 13.4225 9.99993 13.4225C10.2925 13.4225 10.5851 13.3111 10.8079 13.0876L16.5223 7.37323C16.9686 6.92694 16.9686 6.2035 16.5223 5.75721Z" fill="#5A8EC6"/>
</svg>
