<svg width="141" height="71" viewBox="0 0 141 71" fill="none" xmlns="http://www.w3.org/2000/svg">
<path d="M0.100037 5.03883H2.63612V70.546H0.100037V5.03883Z" fill="#A5C33B"/>
<path d="M3.18142 63.3652H2.573V4.25777H3.18142V63.3652Z" fill="#7FAF42"/>
<path d="M11.5142 62.9878H2.63611V65.5072H11.5142V62.9878Z" fill="#B2D143"/>
<path d="M11.5142 68.0266H2.63611V70.546H11.5142V68.0266Z" fill="#7FAF42"/>
<path d="M2.63611 12.8745V62.9878H11.5142V7.55825" fill="#A5C33B"/>
<path d="M11.5142 5.03883H2.63611V12.5977L11.5142 7.55825" fill="#7FAF42"/>
<path d="M12.2245 70.3192H11.616V4.25777H12.2245V70.3192Z" fill="#B2D143"/>
<path d="M71.1241 0V5.03883H0.100586V0H71.1241Z" fill="#A5C33B"/>
<path d="M14.0509 5.03883H11.5142V70.546H14.0509V5.03883Z" fill="#A5C33B"/>
<path d="M14.6343 63.3652H14.0253V4.25777H14.6343V63.3652Z" fill="#7FAF42"/>
<path d="M22.929 62.9878H14.0509V65.5072H22.929V62.9878Z" fill="#B2D143"/>
<path d="M22.929 68.0266H14.0509V70.546H22.929V68.0266Z" fill="#7FAF42"/>
<path d="M14.0509 12.8745V62.9878H22.929V7.55825" fill="#A5C33B"/>
<path d="M22.929 5.03883H14.0509V12.5977L22.929 7.55825" fill="#7FAF42"/>
<path d="M23.6773 4.25777H23.0683V70.3192H23.6773V4.25777Z" fill="#B2D143"/>
<path d="M25.4657 5.03883H22.929V70.546H25.4657V5.03883Z" fill="#A5C33B"/>
<path d="M26.0872 63.3652H25.4781V4.25777H26.0872V63.3652Z" fill="#7FAF42"/>
<path d="M34.3437 62.9878H25.4657V65.5072H34.3437V62.9878Z" fill="#B2D143"/>
<path d="M34.3437 68.0266H25.4657V70.546H34.3437V68.0266Z" fill="#7FAF42"/>
<path d="M25.4657 12.8745V62.9878H34.3432V7.55825" fill="#A5C33B"/>
<path d="M34.3432 5.03883H25.4657V12.5977L34.3432 7.55825" fill="#7FAF42"/>
<path d="M35.1301 4.25777H34.5211V70.3192H35.1301V4.25777Z" fill="#B2D143"/>
<path d="M34.3431 5.03883H36.8798V70.546H34.3431V5.03883Z" fill="#A5C33B"/>
<path d="M37.5394 63.3652H36.9304V4.25777H37.5394V63.3652Z" fill="#7FAF42"/>
<path d="M45.7579 62.9878H36.8798V65.5072H45.7579V62.9878Z" fill="#B2D143"/>
<path d="M45.7579 68.0266H36.8798V70.546H45.7579V68.0266Z" fill="#7FAF42"/>
<path d="M36.8798 12.8745V62.9878H45.7579V7.55825" fill="#A5C33B"/>
<path d="M45.7579 5.03883H36.8798V12.5977L45.7579 7.55825" fill="#7FAF42"/>
<path d="M46.5824 4.25777H45.9734V70.3192H46.5824V4.25777Z" fill="#B2D143"/>
<path d="M48.2946 5.03883H45.7579V70.546H48.2946V5.03883Z" fill="#A5C33B"/>
<path d="M48.9923 63.3652H48.3833V4.25777H48.9923V63.3652Z" fill="#7FAF42"/>
<path d="M48.2946 62.9878H57.1726V65.5072H48.2946V62.9878Z" fill="#B2D143"/>
<path d="M48.2946 68.0266H57.1726V70.546H48.2946V68.0266Z" fill="#7FAF42"/>
<path d="M48.2946 12.8745V62.9878H57.1726V7.55825" fill="#A5C33B"/>
<path d="M57.1726 5.03883H48.2946V12.5977L57.1726 7.55825" fill="#7FAF42"/>
<path d="M58.0347 70.3192H57.4263V4.25777H58.0347V70.3192Z" fill="#B2D143"/>
<path d="M59.7093 5.03883H57.1727V70.546H59.7093V5.03883Z" fill="#A5C33B"/>
<path d="M60.4446 63.3652H59.8356V4.25777H60.4446V63.3652Z" fill="#7FAF42"/>
<path d="M68.5874 62.9878H59.7094V65.5072H68.5874V62.9878Z" fill="#B2D143"/>
<path d="M68.5874 68.0266H59.7094V70.546H68.5874V68.0266Z" fill="#7FAF42"/>
<path d="M11.5142 65.5072H2.63611V68.0266H11.5142V65.5072Z" fill="#A5C33B"/>
<path d="M22.929 65.5072H14.0509V68.0266H22.929V65.5072Z" fill="#A5C33B"/>
<path d="M34.3437 65.5072H25.4657V68.0266H34.3437V65.5072Z" fill="#A5C33B"/>
<path d="M45.7579 65.5072H36.8798V68.0266H45.7579V65.5072Z" fill="#A5C33B"/>
<path d="M48.2946 65.5072H57.1726V68.0266H48.2946V65.5072Z" fill="#A5C33B"/>
<path d="M68.5874 65.5072H59.7094V68.0266H68.5874V65.5072Z" fill="#A5C33B"/>
<path d="M59.7087 12.8745V62.9878H68.5868V7.55825" fill="#A5C33B"/>
<path d="M68.5868 5.03883H59.7087V12.5977L68.5868 7.55825" fill="#7FAF42"/>
<path d="M69.4876 70.3192H68.8785V4.25777H69.4876V70.3192Z" fill="#B2D143"/>
<path d="M68.5868 5.03883H71.1235V70.546H68.5868V5.03883Z" fill="#A5C33B"/>
<path d="M3.90415 10.0783H2.63611V65.5072H3.90415V10.0783Z" fill="#7FAF42"/>
<path d="M11.5142 5.03883H10.2462V65.5066H11.5142V5.03883Z" fill="#B2D143"/>
<path d="M15.3189 10.0783H14.0509V65.5072H15.3189V10.0783Z" fill="#7FAF42"/>
<path d="M22.929 5.03883H21.6609V65.5066H22.929V5.03883Z" fill="#B2D143"/>
<path d="M26.7337 10.0783H25.4657V65.5072H26.7337V10.0783Z" fill="#7FAF42"/>
<path d="M34.3431 5.03883H33.0751V65.5066H34.3431V5.03883Z" fill="#B2D143"/>
<path d="M38.1479 10.0783H36.8798V65.5072H38.1479V10.0783Z" fill="#7FAF42"/>
<path d="M45.7579 5.03883H44.4898V65.5066H45.7579V5.03883Z" fill="#B2D143"/>
<path d="M49.5626 10.0783H48.2946V65.5072H49.5626V10.0783Z" fill="#7FAF42"/>
<path d="M57.1721 5.03883H55.904V65.5066H57.1721V5.03883Z" fill="#B2D143"/>
<path d="M60.9768 10.0783H59.7087V65.5072H60.9768V10.0783Z" fill="#7FAF42"/>
<path d="M68.5868 5.03883H67.3188V65.5066H68.5868V5.03883Z" fill="#B2D143"/>
<path d="M69.0625 5.03883H71.5991V70.546H69.0625V5.03883Z" fill="#A5C33B"/>
<path d="M72.1445 63.3652H71.5361V4.25777H72.1445V63.3652Z" fill="#7FAF42"/>
<path d="M80.4772 62.9878H71.5992V65.5072H80.4772V62.9878Z" fill="#B2D143"/>
<path d="M80.4772 68.0266H71.5992V70.546H80.4772V68.0266Z" fill="#7FAF42"/>
<path d="M71.5992 12.8745V62.9878H80.4772V7.55825" fill="#A5C33B"/>
<path d="M80.4772 5.03883H71.5992V12.5977L80.4772 7.55825" fill="#7FAF42"/>
<path d="M81.1874 70.3192H80.5784V4.25777H81.1874V70.3192Z" fill="#B2D143"/>
<path d="M140.087 0V5.03883H69.0625V0H140.087Z" fill="#A5C33B"/>
<path d="M83.0139 5.03883H80.4772V70.546H83.0139V5.03883Z" fill="#A5C33B"/>
<path d="M83.5973 63.3652H82.9883V4.25777H83.5973V63.3652Z" fill="#7FAF42"/>
<path d="M91.892 62.9878H83.0139V65.5072H91.892V62.9878Z" fill="#B2D143"/>
<path d="M91.892 68.0266H83.0139V70.546H91.892V68.0266Z" fill="#7FAF42"/>
<path d="M83.0139 12.8745V62.9878H91.892V7.55825" fill="#A5C33B"/>
<path d="M91.892 5.03883H83.0139V12.5977L91.892 7.55825" fill="#7FAF42"/>
<path d="M92.6403 4.25777H92.0313V70.3192H92.6403V4.25777Z" fill="#B2D143"/>
<path d="M94.4287 5.03883H91.892V70.546H94.4287V5.03883Z" fill="#A5C33B"/>
<path d="M95.0496 63.3652H94.4412V4.25777H95.0496V63.3652Z" fill="#7FAF42"/>
<path d="M103.306 62.9878H94.4281V65.5072H103.306V62.9878Z" fill="#B2D143"/>
<path d="M103.306 68.0266H94.4281V70.546H103.306V68.0266Z" fill="#7FAF42"/>
<path d="M94.4281 12.8745V62.9878H103.306V7.55825" fill="#A5C33B"/>
<path d="M103.306 5.03883H94.4281V12.5977L103.306 7.55825" fill="#7FAF42"/>
<path d="M104.093 4.25777H103.484V70.3192H104.093V4.25777Z" fill="#B2D143"/>
<path d="M103.306 5.03883H105.843V70.546H103.306V5.03883Z" fill="#A5C33B"/>
<path d="M106.502 63.3652H105.893V4.25777H106.502V63.3652Z" fill="#7FAF42"/>
<path d="M114.721 62.9878H105.843V65.5072H114.721V62.9878Z" fill="#B2D143"/>
<path d="M114.721 68.0266H105.843V70.546H114.721V68.0266Z" fill="#7FAF42"/>
<path d="M105.843 12.8745V62.9878H114.721V7.55825" fill="#A5C33B"/>
<path d="M114.721 5.03883H105.843V12.5977L114.721 7.55825" fill="#7FAF42"/>
<path d="M115.545 4.25777H114.936V70.3192H115.545V4.25777Z" fill="#B2D143"/>
<path d="M117.258 5.03883H114.721V70.546H117.258V5.03883Z" fill="#A5C33B"/>
<path d="M117.955 63.3652H117.346V4.25777H117.955V63.3652Z" fill="#7FAF42"/>
<path d="M117.258 62.9878H126.135V65.5072H117.258V62.9878Z" fill="#B2D143"/>
<path d="M117.258 68.0266H126.135V70.546H117.258V68.0266Z" fill="#7FAF42"/>
<path d="M117.258 12.8745V62.9878H126.135V7.55825" fill="#A5C33B"/>
<path d="M126.135 5.03883H117.258V12.5977L126.135 7.55825" fill="#7FAF42"/>
<path d="M126.998 70.3192H126.389V4.25777H126.998V70.3192Z" fill="#B2D143"/>
<path d="M128.672 5.03883H126.135V70.546H128.672V5.03883Z" fill="#A5C33B"/>
<path d="M129.408 63.3652H128.799V4.25777H129.408V63.3652Z" fill="#7FAF42"/>
<path d="M137.55 62.9878H128.672V65.5072H137.55V62.9878Z" fill="#B2D143"/>
<path d="M137.55 68.0266H128.672V70.546H137.55V68.0266Z" fill="#7FAF42"/>
<path d="M80.4772 65.5072H71.5992V68.0266H80.4772V65.5072Z" fill="#A5C33B"/>
<path d="M91.892 65.5072H83.0139V68.0266H91.892V65.5072Z" fill="#A5C33B"/>
<path d="M103.306 65.5072H94.4281V68.0266H103.306V65.5072Z" fill="#A5C33B"/>
<path d="M114.721 65.5072H105.843V68.0266H114.721V65.5072Z" fill="#A5C33B"/>
<path d="M117.258 65.5072H126.135V68.0266H117.258V65.5072Z" fill="#A5C33B"/>
<path d="M137.55 65.5072H128.672V68.0266H137.55V65.5072Z" fill="#A5C33B"/>
<path d="M128.672 12.8745V62.9878H137.55V7.55825" fill="#A5C33B"/>
<path d="M137.55 5.03883H128.672V12.5977L137.55 7.55825" fill="#7FAF42"/>
<path d="M138.451 70.3192H137.842V4.25777H138.451V70.3192Z" fill="#B2D143"/>
<path d="M137.55 5.03883H140.087V70.546H137.55V5.03883Z" fill="#A5C33B"/>
<path d="M72.8672 10.0783H71.5992V65.5072H72.8672V10.0783Z" fill="#7FAF42"/>
<path d="M80.4772 5.03883H79.2092V65.5066H80.4772V5.03883Z" fill="#B2D143"/>
<path d="M84.282 10.0783H83.0139V65.5072H84.282V10.0783Z" fill="#7FAF42"/>
<path d="M91.8914 5.03883H90.6234V65.5066H91.8914V5.03883Z" fill="#B2D143"/>
<path d="M95.6961 10.0783H94.4281V65.5072H95.6961V10.0783Z" fill="#7FAF42"/>
<path d="M103.306 5.03883H102.038V65.5066H103.306V5.03883Z" fill="#B2D143"/>
<path d="M107.111 10.0783H105.843V65.5072H107.111V10.0783Z" fill="#7FAF42"/>
<path d="M114.72 5.03883H113.452V65.5066H114.72V5.03883Z" fill="#B2D143"/>
<path d="M118.526 10.0783H117.258V65.5072H118.526V10.0783Z" fill="#7FAF42"/>
<path d="M126.135 5.03883H124.867V65.5066H126.135V5.03883Z" fill="#B2D143"/>
<path d="M129.94 10.0783H128.672V65.5072H129.94V10.0783Z" fill="#7FAF42"/>
<path d="M137.55 5.03883H136.282V65.5066H137.55V5.03883Z" fill="#B2D143"/>
<defs>
<clipPath id="clip0_1_897">
<rect width="140.087" height="70.546" fill="white"/>
</clipPath>
</defs>
</svg>
