<svg width="26" height="26" viewBox="0 0 26 26" fill="none" xmlns="http://www.w3.org/2000/svg">
<path d="M0 13C0 5.8203 5.8203 0 13 0V0C20.1797 0 26 5.8203 26 13V13C26 20.1797 20.1797 26 13 26V26C5.8203 26 0 20.1797 0 13V13Z" fill="white"/>
<path d="M13 3C7.48578 3 3 7.48578 3 13C3 18.5142 7.48578 23 13 23C18.5142 23 23 18.5142 23 13C23 7.48578 18.5142 3 13 3ZM17.375 13.8333H13.8333V17.375C13.8333 17.8351 13.4601 18.2083 13 18.2083C12.5399 18.2083 12.1667 17.8351 12.1667 17.375V13.8333H8.625C8.16495 13.8333 7.79172 13.4601 7.79172 13C7.79172 12.5399 8.16495 12.1667 8.625 12.1667H12.1667V8.625C12.1667 8.16495 12.5399 7.79172 13 7.79172C13.4601 7.79172 13.8333 8.16495 13.8333 8.625V12.1667H17.375C17.8351 12.1667 18.2083 12.5399 18.2083 13C18.2083 13.4601 17.8351 13.8333 17.375 13.8333V13.8333Z" fill="#A5C33B"/>
</svg>
