<svg width="18" height="18" viewBox="0 0 18 18" fill="none" xmlns="http://www.w3.org/2000/svg">
<path d="M2.33334 11.3333C3.622 11.3333 4.66667 10.2886 4.66667 8.99999C4.66667 7.71132 3.622 6.66666 2.33334 6.66666C1.04467 6.66666 0 7.71132 0 8.99999C0 10.2886 1.04467 11.3333 2.33334 11.3333Z"/>
<path d="M17.0476 8.52383H6.28572C6.02272 8.52383 5.80952 8.73702 5.80952 9.00003C5.80952 9.26303 6.02272 9.47622 6.28572 9.47622H17.0476C17.3106 9.47622 17.5238 9.26303 17.5238 9.00003C17.5238 8.73702 17.3106 8.52383 17.0476 8.52383Z"/>
<path d="M2.33334 4.66667C3.622 4.66667 4.66667 3.622 4.66667 2.33333C4.66667 1.04467 3.622 0 2.33334 0C1.04467 0 0 1.04467 0 2.33333C0 3.622 1.04467 4.66667 2.33334 4.66667Z"/>
<path d="M6.28572 2.8095H17.0476C17.3106 2.8095 17.5238 2.59631 17.5238 2.33331C17.5238 2.07031 17.3106 1.85712 17.0476 1.85712H6.28572C6.02272 1.85712 5.80952 2.07031 5.80952 2.33331C5.80952 2.59631 6.02272 2.8095 6.28572 2.8095Z"/>
<path d="M2.33334 18C3.622 18 4.66667 16.9553 4.66667 15.6667C4.66667 14.378 3.622 13.3333 2.33334 13.3333C1.04467 13.3333 0 14.378 0 15.6667C0 16.9553 1.04467 18 2.33334 18Z"/>
<path d="M17.0476 15.1905H6.28572C6.02272 15.1905 5.80952 15.4037 5.80952 15.6667C5.80952 15.9297 6.02272 16.1428 6.28572 16.1428H17.0476C17.3106 16.1428 17.5238 15.9297 17.5238 15.6667C17.5238 15.4037 17.3106 15.1905 17.0476 15.1905Z"/>
</svg>
